<svg xmlns="http://www.w3.org/2000/svg" xmlns:xlink="http://www.w3.org/1999/xlink" width="500" zoomAndPan="magnify" viewBox="0 0 375 374.999991" height="500" preserveAspectRatio="xMidYMid meet" version="1.0"><defs><clipPath id="b45102f36f"><path d="M 26 15 L 177 15 L 177 147 L 26 147 Z M 26 15 " clip-rule="nonzero"/></clipPath><clipPath id="9a05c98a9c"><path d="M 31.007812 10.476562 L 180.179688 26.222656 L 167.03125 150.78125 L 17.859375 135.035156 Z M 31.007812 10.476562 " clip-rule="nonzero"/></clipPath><clipPath id="09af1287bd"><path d="M 31.007812 10.476562 L 180.179688 26.222656 L 167.03125 150.78125 L 17.859375 135.035156 Z M 31.007812 10.476562 " clip-rule="nonzero"/></clipPath><clipPath id="ca4e69d755"><path d="M 31.007812 10.476562 L 180.179688 26.222656 L 167.03125 150.78125 L 17.859375 135.035156 Z M 31.007812 10.476562 " clip-rule="nonzero"/></clipPath><clipPath id="770a192f48"><path d="M 191 237 L 343 237 L 343 369 L 191 369 Z M 191 237 " clip-rule="nonzero"/></clipPath><clipPath id="1c548f9b1d"><path d="M 336.285156 375 L 187.5 355.957031 L 203.398438 231.722656 L 352.1875 250.761719 Z M 336.285156 375 " clip-rule="nonzero"/></clipPath><clipPath id="7faded689a"><path d="M 336.285156 375 L 187.5 355.957031 L 203.398438 231.722656 L 352.1875 250.761719 Z M 336.285156 375 " clip-rule="nonzero"/></clipPath><clipPath id="7c6c36837d"><path d="M 336.285156 375 L 187.5 355.957031 L 203.398438 231.722656 L 352.1875 250.761719 Z M 336.285156 375 " clip-rule="nonzero"/></clipPath></defs><path fill="#ae3ee1" d="M 248.023438 197.113281 C 247.535156 197.597656 247.101562 198.121094 246.71875 198.691406 C 246.335938 199.261719 246.011719 199.859375 245.746094 200.492188 C 245.484375 201.125 245.28125 201.777344 245.148438 202.449219 C 245.011719 203.121094 244.941406 203.800781 244.941406 204.488281 C 244.9375 205.171875 245.003906 205.851562 245.136719 206.527344 C 245.269531 207.199219 245.464844 207.851562 245.726562 208.484375 C 245.984375 209.121094 246.304688 209.722656 246.6875 210.292969 C 247.066406 210.863281 247.496094 211.394531 247.980469 211.878906 C 248.464844 212.367188 248.992188 212.800781 249.5625 213.179688 C 250.128906 213.5625 250.730469 213.886719 251.363281 214.148438 C 251.996094 214.414062 252.648438 214.613281 253.324219 214.746094 C 253.996094 214.882812 254.675781 214.949219 255.359375 214.953125 C 256.046875 214.953125 256.726562 214.886719 257.398438 214.753906 C 258.070312 214.621094 258.722656 214.425781 259.355469 214.164062 C 259.992188 213.902344 260.59375 213.582031 261.164062 213.199219 C 261.734375 212.820312 262.261719 212.386719 262.75 211.902344 L 303.527344 171.308594 C 304.386719 170.445312 305.222656 169.5625 306.035156 168.65625 C 306.84375 167.75 307.632812 166.824219 308.394531 165.875 C 309.15625 164.929688 309.894531 163.960938 310.601562 162.976562 C 311.3125 161.988281 311.996094 160.984375 312.65625 159.960938 C 313.3125 158.9375 313.941406 157.898438 314.542969 156.839844 C 315.144531 155.78125 315.71875 154.710938 316.261719 153.625 C 316.808594 152.535156 317.320312 151.433594 317.808594 150.320312 C 318.292969 149.207031 318.75 148.078125 319.175781 146.9375 C 319.601562 145.800781 319.996094 144.652344 320.359375 143.492188 C 320.726562 142.332031 321.058594 141.160156 321.359375 139.984375 C 321.664062 138.804688 321.933594 137.621094 322.171875 136.429688 C 322.410156 135.234375 322.617188 134.039062 322.792969 132.835938 C 322.96875 131.628906 323.113281 130.421875 323.222656 129.210938 C 323.335938 128 323.414062 126.789062 323.460938 125.574219 C 323.503906 124.359375 323.519531 123.140625 323.5 121.925781 C 323.480469 120.710938 323.429688 119.496094 323.347656 118.28125 C 323.265625 117.070312 323.148438 115.859375 323 114.652344 C 322.851562 113.445312 322.671875 112.242188 322.460938 111.046875 C 322.25 109.847656 322.007812 108.65625 321.730469 107.472656 C 321.457031 106.289062 321.148438 105.113281 320.808594 103.945312 C 320.472656 102.773438 320.105469 101.617188 319.703125 100.46875 C 319.304688 99.320312 318.875 98.183594 318.414062 97.058594 C 317.953125 95.933594 317.464844 94.820312 316.945312 93.71875 C 316.421875 92.621094 315.875 91.535156 315.296875 90.464844 C 314.71875 89.394531 314.113281 88.339844 313.480469 87.304688 C 312.847656 86.265625 312.1875 85.246094 311.5 84.242188 C 310.808594 83.238281 310.097656 82.253906 309.355469 81.289062 C 308.613281 80.328125 307.847656 79.382812 307.058594 78.457031 C 306.269531 77.535156 305.453125 76.632812 304.613281 75.75 C 303.773438 74.871094 302.914062 74.015625 302.027344 73.179688 C 301.144531 72.34375 300.238281 71.535156 299.308594 70.75 C 298.382812 69.960938 297.433594 69.199219 296.464844 68.464844 C 291.679688 64.808594 286.496094 61.84375 280.914062 59.578125 C 275.332031 57.3125 269.550781 55.820312 263.566406 55.105469 C 260.996094 54.785156 258.417969 54.609375 255.824219 54.582031 C 253.234375 54.554688 250.652344 54.675781 248.074219 54.945312 C 245.496094 55.210938 242.941406 55.625 240.414062 56.183594 C 237.882812 56.746094 235.394531 57.445312 232.941406 58.289062 C 230.492188 59.132812 228.097656 60.113281 225.761719 61.230469 C 223.421875 62.347656 221.15625 63.59375 218.960938 64.96875 C 216.765625 66.347656 214.65625 67.84375 212.632812 69.460938 C 210.605469 71.078125 208.679688 72.804688 206.851562 74.640625 L 166.230469 115.386719 C 165.742188 115.871094 165.308594 116.398438 164.929688 116.96875 C 164.546875 117.539062 164.222656 118.140625 163.960938 118.777344 C 163.699219 119.410156 163.5 120.0625 163.363281 120.738281 C 163.230469 121.410156 163.164062 122.089844 163.164062 122.777344 C 163.164062 123.464844 163.230469 124.144531 163.367188 124.816406 C 163.5 125.492188 163.699219 126.144531 163.960938 126.777344 C 164.226562 127.410156 164.550781 128.015625 164.929688 128.585938 C 165.3125 129.15625 165.746094 129.683594 166.234375 130.167969 C 166.71875 130.652344 167.25 131.082031 167.820312 131.464844 C 168.394531 131.84375 168.996094 132.164062 169.632812 132.425781 C 170.265625 132.6875 170.921875 132.882812 171.59375 133.015625 C 172.269531 133.148438 172.949219 133.210938 173.632812 133.210938 C 174.320312 133.207031 175 133.136719 175.671875 133 C 176.347656 132.863281 177 132.664062 177.632812 132.398438 C 178.265625 132.132812 178.867188 131.808594 179.4375 131.425781 C 180.003906 131.039062 180.53125 130.605469 181.015625 130.117188 L 221.554688 89.371094 C 222.65625 88.269531 223.808594 87.226562 225.011719 86.238281 C 226.214844 85.25 227.464844 84.324219 228.757812 83.457031 C 230.050781 82.59375 231.386719 81.792969 232.757812 81.058594 C 234.128906 80.324219 235.535156 79.660156 236.972656 79.0625 C 238.414062 78.46875 239.875 77.945312 241.367188 77.492188 C 242.855469 77.039062 244.363281 76.660156 245.890625 76.355469 C 247.417969 76.054688 248.953125 75.824219 250.503906 75.671875 C 252.054688 75.519531 253.605469 75.441406 255.164062 75.441406 C 256.71875 75.441406 258.273438 75.515625 259.820312 75.667969 C 261.371094 75.820312 262.910156 76.050781 264.4375 76.351562 C 265.964844 76.65625 267.472656 77.03125 268.960938 77.484375 C 270.449219 77.9375 271.914062 78.460938 273.355469 79.054688 C 274.792969 79.648438 276.199219 80.316406 277.570312 81.046875 C 278.945312 81.78125 280.277344 82.582031 281.574219 83.445312 C 282.867188 84.308594 284.117188 85.234375 285.320312 86.222656 C 286.523438 87.210938 287.675781 88.253906 288.777344 89.355469 C 289.878906 90.453125 290.921875 91.605469 291.910156 92.808594 C 292.898438 94.011719 293.824219 95.261719 294.691406 96.554688 C 295.554688 97.851562 296.355469 99.183594 297.089844 100.554688 C 297.824219 101.929688 298.488281 103.332031 299.085938 104.773438 C 299.679688 106.210938 300.203125 107.675781 300.65625 109.164062 C 301.109375 110.652344 301.488281 112.160156 301.792969 113.6875 C 302.09375 115.214844 302.324219 116.753906 302.476562 118.300781 C 302.628906 119.851562 302.707031 121.402344 302.707031 122.960938 C 302.707031 124.515625 302.632812 126.070312 302.480469 127.621094 C 302.328125 129.167969 302.097656 130.707031 301.796875 132.234375 C 301.492188 133.761719 301.117188 135.269531 300.664062 136.757812 C 300.210938 138.25 299.6875 139.714844 299.09375 141.152344 C 298.5 142.589844 297.835938 143.996094 297.101562 145.367188 C 296.367188 146.742188 295.566406 148.074219 294.703125 149.371094 C 293.839844 150.664062 292.914062 151.914062 291.925781 153.117188 C 290.9375 154.320312 289.894531 155.472656 288.792969 156.574219 Z M 248.023438 197.113281 " fill-opacity="1" fill-rule="nonzero"/><path fill="#ae3ee1" d="M 124.019531 322.46875 C 128.507812 322.480469 132.957031 322.054688 137.363281 321.183594 C 141.769531 320.316406 146.046875 319.019531 150.195312 317.300781 C 154.34375 315.582031 158.285156 313.472656 162.015625 310.96875 C 165.742188 308.46875 169.191406 305.625 172.355469 302.4375 L 212.964844 261.679688 C 213.449219 261.191406 213.878906 260.664062 214.261719 260.097656 C 214.640625 259.527344 214.960938 258.925781 215.222656 258.289062 C 215.484375 257.65625 215.683594 257.003906 215.816406 256.332031 C 215.949219 255.660156 216.015625 254.980469 216.011719 254.296875 C 216.011719 253.613281 215.945312 252.933594 215.808594 252.261719 C 215.675781 251.589844 215.476562 250.9375 215.214844 250.304688 C 214.949219 249.671875 214.628906 249.070312 214.246094 248.503906 C 213.863281 247.933594 213.429688 247.40625 212.945312 246.925781 C 212.460938 246.441406 211.933594 246.007812 211.363281 245.628906 C 210.792969 245.25 210.191406 244.929688 209.554688 244.667969 C 208.921875 244.410156 208.269531 244.210938 207.597656 244.078125 C 206.925781 243.949219 206.246094 243.882812 205.5625 243.882812 C 204.875 243.886719 204.199219 243.953125 203.527344 244.089844 C 202.855469 244.226562 202.203125 244.425781 201.570312 244.6875 C 200.9375 244.953125 200.335938 245.273438 199.769531 245.65625 C 199.199219 246.039062 198.675781 246.472656 198.191406 246.960938 L 157.621094 287.707031 C 156.519531 288.808594 155.371094 289.851562 154.167969 290.839844 C 152.964844 291.824219 151.714844 292.75 150.421875 293.617188 C 149.125 294.480469 147.792969 295.28125 146.421875 296.015625 C 145.046875 296.746094 143.644531 297.414062 142.207031 298.007812 C 140.765625 298.605469 139.304688 299.128906 137.8125 299.578125 C 136.324219 300.03125 134.816406 300.410156 133.289062 300.710938 C 131.765625 301.015625 130.226562 301.246094 128.675781 301.398438 C 127.128906 301.550781 125.574219 301.625 124.019531 301.625 C 122.464844 301.625 120.910156 301.550781 119.363281 301.398438 C 117.8125 301.246094 116.273438 301.015625 114.75 300.714844 C 113.222656 300.410156 111.714844 300.03125 110.226562 299.582031 C 108.734375 299.128906 107.273438 298.605469 105.832031 298.007812 C 104.394531 297.414062 102.992188 296.75 101.617188 296.015625 C 100.246094 295.28125 98.910156 294.484375 97.617188 293.617188 C 96.324219 292.753906 95.074219 291.828125 93.871094 290.839844 C 92.667969 289.851562 91.515625 288.808594 90.417969 287.707031 C 89.316406 286.609375 88.273438 285.457031 87.285156 284.253906 C 86.296875 283.050781 85.371094 281.800781 84.507812 280.507812 C 83.640625 279.214844 82.84375 277.878906 82.109375 276.507812 C 81.375 275.136719 80.710938 273.730469 80.113281 272.292969 C 79.519531 270.855469 78.996094 269.390625 78.542969 267.902344 C 78.089844 266.410156 77.714844 264.902344 77.410156 263.378906 C 77.105469 261.851562 76.878906 260.3125 76.726562 258.765625 C 76.574219 257.214844 76.496094 255.664062 76.496094 254.105469 C 76.496094 252.550781 76.574219 250.996094 76.726562 249.449219 C 76.878906 247.898438 77.105469 246.363281 77.410156 244.835938 C 77.710938 243.308594 78.089844 241.800781 78.542969 240.3125 C 78.992188 238.824219 79.515625 237.359375 80.113281 235.921875 C 80.707031 234.484375 81.371094 233.078125 82.105469 231.703125 C 82.839844 230.332031 83.640625 229 84.503906 227.703125 C 85.367188 226.410156 86.292969 225.164062 87.28125 223.960938 C 88.269531 222.753906 89.3125 221.605469 90.414062 220.503906 C 90.414062 220.503906 116.300781 194.671875 131.152344 179.929688 C 131.640625 179.445312 132.074219 178.921875 132.457031 178.351562 C 132.84375 177.785156 133.167969 177.183594 133.433594 176.550781 C 133.695312 175.921875 133.898438 175.269531 134.035156 174.597656 C 134.171875 173.925781 134.242188 173.246094 134.242188 172.558594 C 134.246094 171.875 134.179688 171.195312 134.050781 170.523438 C 133.917969 169.851562 133.722656 169.195312 133.460938 168.5625 C 133.199219 167.929688 132.878906 167.324219 132.5 166.753906 C 132.121094 166.183594 131.691406 165.65625 131.207031 165.167969 C 130.722656 164.683594 130.195312 164.25 129.625 163.867188 C 129.058594 163.484375 128.457031 163.164062 127.824219 162.898438 C 127.191406 162.636719 126.535156 162.4375 125.863281 162.304688 C 125.191406 162.167969 124.511719 162.101562 123.828125 162.101562 C 123.140625 162.101562 122.464844 162.167969 121.789062 162.300781 C 121.117188 162.4375 120.464844 162.632812 119.832031 162.898438 C 119.199219 163.160156 118.597656 163.480469 118.027344 163.863281 C 117.457031 164.242188 116.929688 164.675781 116.445312 165.164062 L 75.679688 205.769531 C 74.492188 206.957031 73.351562 208.1875 72.257812 209.457031 C 71.160156 210.730469 70.113281 212.039062 69.113281 213.386719 C 68.113281 214.734375 67.164062 216.117188 66.265625 217.535156 C 65.367188 218.957031 64.523438 220.40625 63.734375 221.886719 C 62.941406 223.363281 62.207031 224.871094 61.527344 226.40625 C 60.847656 227.941406 60.222656 229.5 59.65625 231.078125 C 59.09375 232.660156 58.585938 234.257812 58.136719 235.875 C 57.691406 237.496094 57.304688 239.125 56.976562 240.773438 C 56.648438 242.417969 56.382812 244.074219 56.175781 245.742188 C 55.972656 247.40625 55.828125 249.078125 55.746094 250.753906 C 55.664062 252.429688 55.644531 254.109375 55.683594 255.785156 C 55.726562 257.464844 55.828125 259.136719 55.992188 260.808594 C 56.15625 262.476562 56.382812 264.140625 56.671875 265.792969 C 56.957031 267.449219 57.304688 269.089844 57.710938 270.71875 C 58.121094 272.34375 58.585938 273.957031 59.113281 275.550781 C 59.640625 277.144531 60.226562 278.714844 60.867188 280.265625 C 61.511719 281.816406 62.207031 283.34375 62.964844 284.839844 C 63.71875 286.339844 64.527344 287.808594 65.390625 289.25 C 66.253906 290.6875 67.167969 292.09375 68.132812 293.46875 C 69.101562 294.839844 70.117188 296.175781 71.179688 297.472656 C 72.246094 298.769531 73.355469 300.027344 74.511719 301.242188 C 75.671875 302.457031 76.871094 303.628906 78.113281 304.757812 C 79.359375 305.882812 80.640625 306.964844 81.964844 307.996094 C 83.289062 309.027344 84.648438 310.011719 86.042969 310.945312 C 87.4375 311.878906 88.867188 312.757812 90.328125 313.585938 C 91.785156 314.410156 93.277344 315.183594 94.792969 315.902344 C 96.308594 316.621094 97.851562 317.28125 99.417969 317.886719 C 100.984375 318.488281 102.570312 319.035156 104.175781 319.523438 C 105.78125 320.011719 107.402344 320.4375 109.042969 320.804688 C 110.679688 321.171875 112.328125 321.480469 113.988281 321.726562 C 115.648438 321.972656 117.316406 322.160156 118.988281 322.28125 C 120.664062 322.40625 122.339844 322.46875 124.019531 322.46875 Z M 124.019531 322.46875 " fill-opacity="1" fill-rule="nonzero"/><path fill="#ae3ee1" d="M 226.582031 136.808594 L 137.84375 225.539062 C 137.359375 226.023438 136.925781 226.546875 136.546875 227.117188 C 136.167969 227.6875 135.847656 228.285156 135.585938 228.917969 C 135.324219 229.550781 135.125 230.199219 134.992188 230.871094 C 134.859375 231.542969 134.792969 232.21875 134.792969 232.902344 C 134.792969 233.589844 134.859375 234.265625 134.992188 234.9375 C 135.125 235.605469 135.324219 236.257812 135.585938 236.890625 C 135.847656 237.523438 136.167969 238.121094 136.546875 238.691406 C 136.925781 239.257812 137.359375 239.785156 137.84375 240.269531 C 138.324219 240.753906 138.851562 241.183594 139.421875 241.566406 C 139.988281 241.945312 140.589844 242.265625 141.222656 242.527344 C 141.855469 242.789062 142.503906 242.988281 143.175781 243.121094 C 143.847656 243.253906 144.523438 243.320312 145.207031 243.320312 C 145.890625 243.320312 146.570312 243.253906 147.238281 243.121094 C 147.910156 242.984375 148.5625 242.789062 149.195312 242.527344 C 149.824219 242.265625 150.425781 241.945312 150.996094 241.5625 C 151.5625 241.183594 152.089844 240.753906 152.574219 240.269531 L 241.316406 151.539062 C 241.796875 151.054688 242.230469 150.527344 242.609375 149.960938 C 242.992188 149.390625 243.3125 148.789062 243.574219 148.160156 C 243.835938 147.527344 244.03125 146.875 244.164062 146.203125 C 244.300781 145.535156 244.367188 144.855469 244.367188 144.171875 C 244.367188 143.488281 244.300781 142.8125 244.164062 142.140625 C 244.03125 141.46875 243.835938 140.816406 243.574219 140.1875 C 243.3125 139.554688 242.988281 138.953125 242.609375 138.386719 C 242.230469 137.816406 241.796875 137.289062 241.3125 136.804688 C 240.832031 136.324219 240.304688 135.890625 239.734375 135.511719 C 239.167969 135.132812 238.566406 134.808594 237.933594 134.546875 C 237.304688 134.285156 236.652344 134.089844 235.980469 133.957031 C 235.308594 133.820312 234.632812 133.753906 233.949219 133.753906 C 233.265625 133.753906 232.585938 133.824219 231.917969 133.957031 C 231.246094 134.089844 230.59375 134.285156 229.960938 134.546875 C 229.328125 134.808594 228.730469 135.132812 228.160156 135.511719 C 227.59375 135.890625 227.066406 136.324219 226.582031 136.808594 Z M 226.582031 136.808594 " fill-opacity="1" fill-rule="nonzero"/><g clip-path="url(#b45102f36f)"><g clip-path="url(#9a05c98a9c)"><g clip-path="url(#09af1287bd)"><g clip-path="url(#ca4e69d755)"><path fill="#fadb5e" d="M 79.507812 16.65625 C 79.414062 15.988281 78.839844 15.535156 78.175781 15.628906 C 77.742188 15.679688 77.347656 16 77.207031 16.414062 C 74.308594 24 67.664062 37.867188 55.445312 45.492188 C 46.953125 50.777344 37.328125 54.039062 27.390625 54.996094 C 26.730469 55.054688 26.242188 55.628906 26.304688 56.292969 C 26.351562 56.757812 26.644531 57.121094 27.050781 57.292969 C 34.730469 60.339844 47.96875 66.640625 54.070312 75.605469 C 58.898438 82.691406 62.074219 99.503906 63.371094 107.699219 C 63.503906 108.335938 64.109375 108.796875 64.746094 108.664062 C 65.144531 108.609375 65.503906 108.316406 65.644531 107.9375 C 68.703125 100.070312 76.179688 83.921875 87.601562 77.925781 C 97.808594 72.558594 108.746094 70.488281 114.898438 69.691406 C 115.5625 69.597656 115.988281 68.984375 115.894531 68.316406 C 115.839844 67.917969 115.582031 67.5625 115.203125 67.421875 C 108.199219 64.511719 95.25 58.246094 90.503906 50.410156 C 83.132812 38.25 80.476562 24.257812 79.507812 16.65625 Z M 132.414062 89.828125 C 132.355469 89.425781 131.992188 89.15625 131.59375 89.214844 C 131.328125 89.25 131.109375 89.425781 131.019531 89.679688 C 129.25 94.328125 125.171875 102.808594 117.699219 107.449219 C 112.503906 110.679688 106.625 112.660156 100.53125 113.230469 C 100.132812 113.257812 99.832031 113.617188 99.890625 114.019531 C 99.925781 114.285156 100.097656 114.535156 100.351562 114.628906 C 105.039062 116.503906 113.160156 120.320312 116.875 125.8125 C 119.828125 130.136719 121.757812 140.4375 122.574219 145.453125 C 122.628906 145.855469 123.027344 146.128906 123.394531 146.066406 C 123.660156 146.03125 123.84375 145.851562 123.96875 145.601562 C 125.851562 140.800781 130.402344 130.921875 137.382812 127.253906 C 143.628906 123.964844 150.320312 122.699219 154.078125 122.207031 C 154.480469 122.152344 154.746094 121.785156 154.691406 121.382812 C 154.652344 121.117188 154.480469 120.902344 154.257812 120.8125 C 149.957031 119.007812 142.0625 115.214844 139.160156 110.402344 C 134.625 103.050781 133.003906 94.492188 132.414062 89.828125 Z M 161.859375 37.945312 C 161.824219 37.679688 161.578125 37.488281 161.3125 37.527344 C 161.148438 37.542969 161.003906 37.660156 160.917969 37.847656 C 159.738281 40.945312 157.050781 46.546875 152.066406 49.640625 C 148.628906 51.777344 144.714844 53.105469 140.675781 53.503906 C 140.410156 53.539062 140.222656 53.75 140.226562 54.015625 C 140.238281 54.210938 140.355469 54.355469 140.546875 54.410156 C 143.660156 55.660156 149.03125 58.199219 151.53125 61.851562 C 153.492188 64.722656 154.769531 71.566406 155.304688 74.878906 C 155.34375 75.144531 155.589844 75.304688 155.855469 75.265625 C 156.019531 75.25 156.164062 75.132812 156.210938 74.972656 C 157.46875 71.785156 160.488281 65.230469 165.140625 62.792969 C 169.273438 60.597656 173.71875 59.785156 176.246094 59.460938 C 176.511719 59.421875 176.703125 59.179688 176.664062 58.914062 C 176.648438 58.746094 176.53125 58.601562 176.378906 58.519531 C 173.519531 57.332031 168.277344 54.804688 166.351562 51.609375 C 163.359375 46.722656 162.253906 41.046875 161.859375 37.945312 Z M 161.859375 37.945312 " fill-opacity="1" fill-rule="nonzero"/></g></g></g></g><g clip-path="url(#770a192f48)"><g clip-path="url(#1c548f9b1d)"><g clip-path="url(#7faded689a)"><g clip-path="url(#7c6c36837d)"><path fill="#fadb5e" d="M 287.933594 367.75 C 288.015625 368.417969 288.578125 368.886719 289.246094 368.808594 C 289.679688 368.761719 290.082031 368.453125 290.230469 368.042969 C 293.296875 360.519531 300.25 346.804688 312.628906 339.453125 C 321.238281 334.355469 330.929688 331.308594 340.886719 330.570312 C 341.550781 330.523438 342.050781 329.960938 342.003906 329.296875 C 341.964844 328.832031 341.683594 328.464844 341.277344 328.28125 C 333.667969 325.066406 320.574219 318.476562 314.671875 309.378906 C 310 302.1875 307.199219 285.308594 306.082031 277.085938 C 305.964844 276.445312 305.367188 275.972656 304.730469 276.089844 C 304.328125 276.136719 303.964844 276.417969 303.816406 276.796875 C 300.582031 284.59375 292.753906 300.570312 281.203125 306.316406 C 270.878906 311.457031 259.894531 313.28125 253.726562 313.945312 C 253.058594 314.023438 252.621094 314.625 252.699219 315.296875 C 252.746094 315.699219 252.996094 316.058594 253.371094 316.207031 C 260.3125 319.269531 273.117188 325.824219 277.6875 333.761719 C 284.792969 346.078125 287.136719 360.128906 287.933594 367.75 Z M 236.660156 293.425781 C 236.710938 293.828125 237.066406 294.105469 237.46875 294.058594 C 237.734375 294.027344 237.953125 293.855469 238.050781 293.605469 C 239.925781 288.996094 244.1875 280.605469 251.761719 276.136719 C 257.027344 273.015625 262.949219 271.171875 269.054688 270.730469 C 269.453125 270.714844 269.761719 270.359375 269.710938 269.957031 C 269.679688 269.691406 269.515625 269.4375 269.265625 269.339844 C 264.621094 267.363281 256.585938 263.367188 252.992188 257.792969 C 250.132812 253.40625 248.433594 243.066406 247.730469 238.03125 C 247.683594 237.628906 247.289062 237.347656 246.921875 237.398438 C 246.65625 237.429688 246.46875 237.605469 246.339844 237.851562 C 244.347656 242.609375 239.578125 252.386719 232.523438 255.902344 C 226.203125 259.046875 219.484375 260.167969 215.71875 260.574219 C 215.316406 260.625 215.039062 260.984375 215.085938 261.386719 C 215.117188 261.652344 215.289062 261.871094 215.507812 261.964844 C 219.765625 263.863281 227.578125 267.832031 230.371094 272.707031 C 234.742188 280.15625 236.175781 288.75 236.660156 293.425781 Z M 206.074219 344.644531 C 206.105469 344.910156 206.34375 345.105469 206.613281 345.074219 C 206.777344 345.0625 206.925781 344.949219 207.015625 344.765625 C 208.261719 341.691406 211.074219 336.148438 216.125 333.167969 C 219.609375 331.109375 223.550781 329.867188 227.597656 329.558594 C 227.867188 329.527344 228.058594 329.320312 228.058594 329.058594 C 228.050781 328.859375 227.9375 328.710938 227.75 328.65625 C 224.664062 327.335938 219.347656 324.679688 216.929688 320.972656 C 215.035156 318.058594 213.90625 311.1875 213.445312 307.867188 C 213.414062 307.597656 213.171875 307.433594 212.90625 307.464844 C 212.738281 307.476562 212.59375 307.589844 212.539062 307.75 C 211.214844 310.910156 208.050781 317.398438 203.347656 319.730469 C 199.164062 321.832031 194.703125 322.546875 192.167969 322.816406 C 191.902344 322.847656 191.707031 323.085938 191.738281 323.355469 C 191.75 323.519531 191.863281 323.667969 192.015625 323.753906 C 194.847656 325.003906 200.03125 327.648438 201.886719 330.886719 C 204.769531 335.835938 205.75 341.535156 206.074219 344.644531 Z M 206.074219 344.644531 " fill-opacity="1" fill-rule="nonzero"/></g></g></g></g></svg>